<svg width="0" height="0" class="hidden">
<!--nav-->
<symbol xmlns="http://www.w3.org/2000/svg" viewBox="0 0 512 512" id="cart"><!--ok 1 -->
    <title></title>
    <path d="M192 464c0 26.51-21.49 48-48 48s-48-21.49-48-48 21.49-48 48-48 48 21.49 48 48zm320 0c0 26.51-21.49 48-48 48s-48-21.49-48-48 21.49-48 48-48 48 21.49 48 48zm0-208V64H128c0-17.673-14.327-32-32-32H0v32h64l24.037 206.027C73.39 281.756 64 299.777 64 320c0 35.348 28.654 64 64 64h384v-32H128c-17.673 0-32-14.327-32-32 0-.109.007-.218.008-.328L512 256z"></path>
  </symbol>

   <symbol xmlns="http://www.w3.org/2000/svg" viewBox="0 0 512 512" id="search"><!--ok 2 -->
    <title></title>
    <path d="M496.131 435.698L374.855 332.551c-12.537-11.283-25.945-16.463-36.776-15.963C366.707 283.054 384 239.549 384 192 384 85.961 298.039 0 192 0S0 85.961 0 192s85.961 192 192 192c47.549 0 91.054-17.293 124.588-45.922-.5 10.831 4.68 24.239 15.963 36.776L435.698 496.13c17.661 19.623 46.511 21.277 64.11 3.678s15.946-46.449-3.677-64.11zM192 320c-70.692 0-128-57.308-128-128S121.308 64 192 64s128 57.308 128 128-57.307 128-128 128z"></path>
  </symbol>
  
<!--services-->
  <symbol xmlns="http://www.w3.org/2000/svg" viewBox="0 0 58.153 58.153" id="alarm-clock"><!--ok 1 -->
    <path d="M40.076 29.153h-7.142a3.995 3.995 0 0 0-2.858-2.858V16.153a1 1 0 1 0-2 0v10.142c-1.72.447-3 1.999-3 3.858 0 2.206 1.794 4 4 4 1.858 0 3.411-1.28 3.858-3h7.142a1 1 0 1 0 0-2zm-11 3c-1.103 0-2-.897-2-2s.897-2 2-2 2 .897 2 2-.897 2-2 2z"></path>
    <path d="M50.188 9.764l4.096 4.096a1 1 0 0 0 1.414 0c3.167-3.166 3.167-8.319 0-11.485-3.166-3.166-8.319-3.166-11.485 0a.997.997 0 0 0 0 1.414l4.561 4.561-1.699 1.699c-4.78-4.284-11.089-6.896-17.998-6.896s-13.218 2.612-17.998 6.896l-1.7-1.699 4.561-4.561a.997.997 0 0 0 0-1.414c-3.166-3.166-8.319-3.166-11.485 0-3.167 3.166-3.167 8.319 0 11.485a1 1 0 0 0 1.414 0l4.096-4.096 1.676 1.676c-4.679 4.857-7.565 11.453-7.565 18.713 0 9.898 5.357 18.564 13.321 23.265l-3.028 3.028a.999.999 0 1 0 1.414 1.414l3.45-3.45c3.578 1.754 7.597 2.743 11.843 2.743s8.265-.989 11.843-2.743l3.45 3.45a.997.997 0 0 0 1.414 0 .999.999 0 0 0 0-1.414l-3.028-3.028c7.964-4.701 13.321-13.367 13.321-23.265 0-7.26-2.886-13.856-7.565-18.713l1.677-1.676zm4.095-5.975c2.146 2.146 2.362 5.502.649 7.893L46.391 3.14c2.389-1.713 5.746-1.498 7.892.649zM3.22 11.681a6.131 6.131 0 0 1 .649-7.892c2.146-2.146 5.503-2.361 7.892-.649L3.22 11.681zm25.856 43.472c-13.785 0-25-11.215-25-25s11.215-25 25-25 25 11.215 25 25-11.214 25-25 25z"></path>
    <path d="M48.958 18.61a23.164 23.164 0 0 0-8.338-8.338c-.016-.011-.026-.028-.043-.038-.018-.01-.037-.01-.055-.019a22.85 22.85 0 0 0-11.445-3.063 22.84 22.84 0 0 0-11.445 3.063c-.018.009-.038.008-.055.019-.017.01-.026.027-.043.038a23.156 23.156 0 0 0-8.338 8.338c-.011.017-.028.026-.038.043-.01.017-.01.037-.018.055-1.944 3.374-3.063 7.28-3.063 11.445s1.119 8.072 3.063 11.445c.009.018.008.037.018.055.014.025.035.043.051.066a23.175 23.175 0 0 0 8.325 8.315c.016.011.026.028.043.038.026.015.054.021.08.033 3.368 1.935 7.265 3.048 11.42 3.048s8.052-1.113 11.42-3.048c.026-.012.054-.018.08-.033.017-.01.026-.027.043-.038a23.167 23.167 0 0 0 8.325-8.315c.016-.023.037-.041.051-.066.01-.017.01-.037.018-.055 1.944-3.374 3.063-7.28 3.063-11.445s-1.119-8.072-3.063-11.445c-.009-.018-.008-.037-.018-.055-.011-.017-.028-.027-.038-.043zm-8.539 29.189l-.477-.826a1 1 0 1 0-1.732 1l.479.829a20.84 20.84 0 0 1-8.612 2.3v-.949a1 1 0 1 0-2 0v.949a20.825 20.825 0 0 1-8.612-2.3l.479-.829a1 1 0 0 0-1.732-1l-.477.826a21.128 21.128 0 0 1-6.303-6.303l.826-.477a1 1 0 0 0-1-1.732l-.829.479a20.844 20.844 0 0 1-2.3-8.612h.949a1 1 0 1 0 0-2h-.951c.147-3.092.953-6.01 2.3-8.612l.829.479a.997.997 0 0 0 1.366-.366 1 1 0 0 0-.366-1.366l-.826-.479a21.14 21.14 0 0 1 6.303-6.303l.477.826a1.002 1.002 0 0 0 1.366.366 1 1 0 0 0 .366-1.366l-.479-.829a20.84 20.84 0 0 1 8.612-2.3v.949a1 1 0 1 0 2 0v-.949c3.092.146 6.009.953 8.612 2.3l-.479.829a1 1 0 0 0 1.732 1l.477-.826a21.128 21.128 0 0 1 6.303 6.303l-.826.477a1 1 0 0 0 1 1.732l.829-.479a20.844 20.844 0 0 1 2.3 8.612h-.949a1 1 0 1 0 0 2h.949a20.836 20.836 0 0 1-2.3 8.612l-.829-.479a.999.999 0 1 0-1 1.732l.826.477a21.093 21.093 0 0 1-6.301 6.305z"></path>
  </symbol>

  <symbol xmlns="http://www.w3.org/2000/svg" viewBox="0 0 512 512" id="ascendant-bars-graphic"><!--ok 2 -->
    <path d="M512 480v32H0V0h32v480h480zM228.906 177.719l130.719 32.656L404.875 135l41 24.625L448 32 336.406 93.938l41 24.625-33.031 55.063-125.281-31.344L84.688 276.688l22.625 22.625 121.593-121.594zM192 448h64V217.469l-17.281-4.312L192 259.875V448zM96 333.25V448h64V291.875l-52.688 52.688L96 333.25zM384 232v216h64V198.219l-32.156-19.281L384 232zm-32 216V241.469l-64-16V448h64z"></path>
  </symbol>

  <symbol xmlns="http://www.w3.org/2000/svg" viewBox="0 0 511.999 511.999" id="monitor"><!--ok 3 -->
    <path d="M481.091 27.937H30.909C13.866 27.937 0 41.803 0 58.846v310.819c0 17.043 13.866 30.909 30.909 30.909h154.26v22.49c0 20.617-16.774 37.391-37.391 37.391h-33.997c-6.518 0-11.803 5.284-11.803 11.803 0 6.519 5.285 11.803 11.803 11.803h284.436c6.518 0 11.803-5.284 11.803-11.803 0-6.519-5.285-11.803-11.803-11.803h-33.998c-20.617 0-37.391-16.774-37.391-37.391v-22.489h154.26c17.043 0 30.91-13.866 30.91-30.909V58.846c.002-17.043-13.864-30.909-30.907-30.909zM195.92 460.457c8.046-10.336 12.857-23.308 12.857-37.391v-22.49h94.447v22.49c0 14.083 4.811 27.056 12.857 37.391H195.92zm292.474-90.791c0 4.027-3.276 7.304-7.304 7.304H30.909c-4.027 0-7.304-3.276-7.304-7.304v-62.033h464.789v62.033zm0-85.64H23.606V58.846c0-4.027 3.276-7.304 7.304-7.304h450.18c4.027 0 7.305 3.276 7.305 7.304v225.18z"></path>
    <circle cx="256.003" cy="342.305" r="12.738"></circle>
    <path d="M276.238 109.254c-4.61-4.609-12.081-4.609-16.693 0l-83.414 83.414c-4.609 4.609-4.609 12.083 0 16.693a11.767 11.767 0 0 0 8.347 3.457c3.022 0 6.041-1.152 8.346-3.457l83.414-83.414c4.609-4.609 4.609-12.083 0-16.693zm49.44 48.339c-4.608-4.609-12.079-4.609-16.692-.001l-33.23 33.228c-4.609 4.61-4.609 12.084 0 16.693a11.765 11.765 0 0 0 8.346 3.457c3.02 0 6.041-1.152 8.346-3.457l33.23-33.228c4.609-4.609 4.609-12.083 0-16.692z"></path>
  </symbol>

  <symbol xmlns="http://www.w3.org/2000/svg" viewBox="0 0 297.001 297.001" id="open-book"><!--ok 4 -->
    <path d="M287.034 60.873l-20.819-.001V39.321a9.965 9.965 0 0 0-8.49-9.856c-.852-.128-21.134-3.074-45.557 1.37-27.227 4.954-48.941 17.171-63.668 35.64-14.728-18.469-36.442-30.686-63.668-35.64-24.424-4.443-44.706-1.498-45.557-1.37a9.967 9.967 0 0 0-8.49 9.856v21.551H9.966C4.463 60.872 0 65.335 0 70.839v187.805a9.966 9.966 0 0 0 13.244 9.412c.748-.259 75.431-25.747 131.12-.345a9.963 9.963 0 0 0 8.273 0c55.533-25.33 130.376.088 131.12.345a9.973 9.973 0 0 0 9.051-1.287 9.966 9.966 0 0 0 4.193-8.124V70.84c-.001-5.504-4.463-9.967-9.967-9.967zM19.933 245.309V80.805h10.852v132.726a9.968 9.968 0 0 0 3.458 7.539 9.972 9.972 0 0 0 7.969 2.319c.55-.08 43.846-6.024 75.478 15.679-38.965-6.663-77.963 1.044-97.757 6.241zm118.601-15.229c-13.932-12.588-32.079-21.1-53.702-25.034-10.406-1.894-20.06-2.446-27.78-2.446-2.292 0-4.414.049-6.333.126V48.473h-.001c19.155-.864 65.752 1.184 87.816 38.587v143.02zm19.932-143.019c21.985-37.243 68.655-39.384 87.816-38.563v154.228c-8.383-.338-20.62-.136-34.114 2.32-21.623 3.934-39.77 12.445-53.702 25.034V87.061zm20.811 152.013c31.636-21.716 74.955-15.766 75.495-15.686a9.965 9.965 0 0 0 11.443-9.857V80.806h10.852v164.503c-19.8-5.199-58.814-12.909-97.79-6.235z"></path>
  </symbol>

 <symbol xmlns="http://www.w3.org/2000/svg" viewBox="0 0 611.997 611.998" id="house-outline"><!--ok 5 -->
    <path d="M511.114 300.251c-9.94 0-17.638 7.663-17.638 17.651v241.105H368.401v-98.453c0-9.236-7.697-17.31-17.002-17.31h-90.435c-9.948 0-17.96 8.073-17.96 17.31v98.453h-124.76v-233.1c0-9.306-7.69-17.036-17.638-17.036-9.298 0-16.995 7.73-16.995 17.036v250.752c0 9.305 7.697 17.036 16.995 17.036h160.358c9.298 0 16.995-7.731 16.995-17.036v-98.454h55.801v98.454c0 9.305 7.697 17.036 17.639 17.036h159.715c9.299 0 16.995-7.731 16.995-17.036V317.903c0-9.988-7.696-17.652-16.995-17.652z"></path>
    <path d="M607.003 314.003L467.819 174.225V78.919c0-9.921-8.019-17.583-17.96-17.583-9.305 0-17.001 7.663-17.001 17.583v60.345L318.046 23.774c-3.518-3.558-7.697-5.474-11.864-5.474-4.81 0-8.983 1.984-12.507 5.474L5.361 312.087c-6.917 6.91-7.375 17.994 0 24.357 6.411 7.389 17.454 6.91 24.371 0l276.45-275.793 275.807 278.393c2.873 2.874 7.054 4.516 12.507 4.516 4.81 0 8.976-1.642 12.507-4.516 6.417-6.431 6.896-18.062 0-25.041z"></path>
  </symbol>

  <symbol xmlns="http://www.w3.org/2000/svg" viewBox="0 0 512 512" id="digital-marketing"><!--ok 6 -->
    <path d="M197.964 32.041h-71.987c-5.521 0-9.998 4.476-9.998 9.998 0 5.522 4.477 9.998 9.998 9.998h71.987c5.521 0 9.998-4.476 9.998-9.998 0-5.522-4.477-9.998-9.998-9.998zm-28.926 424.612c-1.859-1.861-4.438-2.93-7.068-2.93s-5.209 1.07-7.069 2.93a10.072 10.072 0 0 0-2.929 7.069c0 2.63 1.069 5.209 2.929 7.069 1.86 1.86 4.439 2.929 7.069 2.929s5.209-1.07 7.068-2.929a10.073 10.073 0 0 0 2.93-7.069c0-2.64-1.069-5.21-2.93-7.069z"></path>
    <path d="M447.633 317.864l-36.785-63.713c15.083-13.975 19.107-37.036 8.401-55.579-6.019-10.424-15.735-17.881-27.363-20.996-8.333-2.234-16.933-2.031-24.976.473l-36.778-63.701a9.998 9.998 0 0 0-16.53-1.165L199.094 259.411l-48.056 27.745c-27.422 15.831-36.85 51.021-21.018 78.443 7.67 13.284 20.052 22.786 34.869 26.755a57.72 57.72 0 0 0 14.955 1.982c9.95 0 19.77-2.609 28.619-7.719l5.723-3.304 19.961 34.573H19.996V84.031h283.948v2.999c0 5.522 4.477 9.998 9.998 9.998s9.998-4.476 9.998-9.998V39.3c0-21.644-17.609-39.254-39.254-39.254H39.254C17.609.046 0 17.655 0 39.3v433.4c0 21.644 17.609 39.254 39.254 39.254h245.434c21.644 0 39.254-17.609 39.254-39.254V349.312l116.44-16.551a9.995 9.995 0 0 0 7.251-14.897zM19.996 39.3c0-10.619 8.639-19.257 19.257-19.257h245.434c10.618 0 19.257 8.638 19.257 19.257v24.734H19.996V39.3zm366.715 157.591c6.468 1.733 11.873 5.881 15.221 11.68 5.134 8.893 4.178 19.656-1.56 27.437l-22.988-39.817a25.029 25.029 0 0 1 9.327.7zM198.465 369.3c-8.658 4.999-18.747 6.326-28.401 3.739-9.656-2.588-17.727-8.78-22.726-17.439-10.318-17.873-4.173-40.809 13.699-51.128l41.076-23.715 37.424 64.829-41.072 23.714zm33.039 4.015l18.031-10.41 23.621 40.911-18.031 10.41-23.621-40.911zm72.44 99.384c0 10.619-8.639 19.257-19.257 19.257H39.254c-10.618 0-19.257-8.638-19.257-19.257v-34.817h283.948v34.817zm0-54.813h-15.167l3.033-1.752c4.782-2.76 6.421-8.875 3.659-13.658l-26.207-45.393 34.682-4.93v65.733zm-45.452-79.469l-40.686-70.469 72.718-92.862 84.719 146.736-116.751 16.595zm138.089-19.628l-92.766-160.676 16.403-20.946 102.698 177.878-26.335 3.744zM510.658 146.14c-2.761-4.781-8.874-6.421-13.657-3.659l-49.023 28.304c-4.782 2.76-6.421 8.875-3.659 13.657a9.995 9.995 0 0 0 13.657 3.659l49.023-28.304c4.782-2.76 6.421-8.875 3.659-13.657zm-90.494-43.897c-5.335-1.43-10.815 1.737-12.245 7.07l-7.147 26.674c-1.43 5.335 1.736 10.817 7.07 12.246.867.232 1.737.343 2.594.343 4.414 0 8.454-2.946 9.651-7.413l7.147-26.674c1.429-5.335-1.736-10.817-7.07-12.246zm76.36 130.794l-27.566-7.387c-5.335-1.43-10.815 1.737-12.245 7.07-1.43 5.334 1.736 10.816 7.07 12.246l27.566 7.387c.867.232 1.737.343 2.594.343 4.414 0 8.454-2.946 9.651-7.413 1.429-5.335-1.736-10.818-7.07-12.246z"></path>
    <path d="M189.632 113.194H51.669c-5.521 0-9.998 4.476-9.998 9.998s4.477 9.998 9.998 9.998h137.964c5.521 0 9.998-4.476 9.998-9.998s-4.478-9.998-9.999-9.998zm7.072 50.922a10.03 10.03 0 0 0-7.069-2.93c-2.64 0-5.209 1.06-7.069 2.93a10.03 10.03 0 0 0-2.929 7.069c0 2.63 1.06 5.209 2.929 7.069a10.059 10.059 0 0 0 7.069 2.929c2.63 0 5.209-1.07 7.069-2.929a10.077 10.077 0 0 0 2.929-7.069c0-2.63-1.069-5.209-2.929-7.069zm-48.398-2.931H51.669c-5.521 0-9.998 4.476-9.998 9.998s4.477 9.998 9.998 9.998h96.637c5.521 0 9.998-4.476 9.998-9.998s-4.477-9.998-9.998-9.998zm17.573 47.991H90.074c-5.521 0-9.998 4.476-9.998 9.998s4.476 9.998 9.998 9.998h75.804c5.521 0 9.998-4.476 9.998-9.998s-4.476-9.998-9.997-9.998zm-113.83 0h-.464c-5.521 0-9.998 4.476-9.998 9.998s4.477 9.998 9.998 9.998h.464c5.521 0 9.998-4.476 9.998-9.998s-4.477-9.998-9.998-9.998z"></path>
  </symbol>

 <!--links-->
  <symbol xmlns="http://www.w3.org/2000/svg" viewBox="0 0 512 512" id="facebook"><!--ok-->
    <title></title>
    <path d="M304 96h80V0h-80c-61.757 0-112 50.243-112 112v48h-64v96h64v256h96V256h80l16-96h-96v-48c0-8.673 7.327-16 16-16z"></path>
  </symbol>

  <symbol xmlns="http://www.w3.org/2000/svg" viewBox="0 0 512 512" id="twitter"><!--ok-->
    <title></title>
    <path d="M512 113.2c-18.8 8.4-39.1 14-60.3 16.5 21.7-13 38.3-33.6 46.2-58.1-20.3 12-42.8 20.8-66.7 25.5C412 76.7 384.7 64 354.5 64c-58 0-105 47-105 105 0 8.2.9 16.2 2.7 23.9-87.3-4.4-164.7-46.2-216.5-109.8-9 15.5-14.2 33.6-14.2 52.8 0 36.4 18.5 68.6 46.7 87.4-17.2-.5-33.4-5.3-47.6-13.1v1.3c0 50.9 36.2 93.4 84.3 103-8.8 2.4-18.1 3.7-27.7 3.7-6.8 0-13.3-.7-19.8-1.9 13.4 41.7 52.2 72.1 98.1 73-36 28.2-81.2 45-130.5 45-8.5 0-16.8-.5-25.1-1.5C46.5 462.7 101.7 480 161 480c193.2 0 298.9-160.1 298.9-298.9 0-4.6-.1-9.1-.3-13.6 20.5-14.7 38.3-33.2 52.4-54.3z"></path>
  </symbol>

  <symbol xmlns="http://www.w3.org/2000/svg" viewBox="0 0 512 512" id="pinterest"><!--ok-->
    <title></title>
    <path d="M256 34.2C133.5 34.2 34.2 133.5 34.2 256c0 94 58.5 174.2 141 206.5-1.9-17.5-3.7-44.5.8-63.6 4-17.3 26-110.2 26-110.2s-6.6-13.3-6.6-32.9c0-30.8 17.9-53.9 40.1-53.9 18.9 0 28.1 14.2 28.1 31.2 0 19-12.1 47.5-18.4 73.8-5.3 22.1 11 40.1 32.8 40.1 39.4 0 69.7-41.6 69.7-101.6 0-53.1-38.2-90.2-92.6-90.2-63.1 0-100.1 47.3-100.1 96.3 0 19.1 7.3 39.5 16.5 50.6 1.8 2.2 2.1 4.1 1.5 6.4-1.7 7-5.4 22.1-6.2 25.2-1 4.1-3.2 4.9-7.4 3-27.7-12.9-45-53.4-45-85.9 0-70 50.8-134.2 146.5-134.2 76.9 0 136.7 54.8 136.7 128.1 0 76.4-48.2 138-115.1 138-22.5 0-43.6-11.7-50.8-25.5 0 0-11.1 42.3-13.8 52.7-5 19.3-18.5 43.4-27.6 58.1 20.8 6.4 42.8 9.9 65.7 9.9 122.5 0 221.8-99.3 221.8-221.8 0-122.6-99.3-221.9-221.8-221.9z"></path>
  </symbol>

  <symbol xmlns="http://www.w3.org/2000/svg" viewBox="0 0 512 512" id="instagram"><!--ok-->
    <title></title>
    <path d="M256 46.1c68.4 0 76.5.3 103.4 1.5 25 1.1 38.5 5.3 47.5 8.8 11.9 4.6 20.5 10.2 29.4 19.1 9 9 14.5 17.5 19.2 29.4 3.5 9 7.7 22.6 8.8 47.5 1.2 27 1.5 35.1 1.5 103.4s-.3 76.5-1.5 103.4c-1.1 25-5.3 38.5-8.8 47.5-4.6 11.9-10.2 20.5-19.1 29.4-9 9-17.5 14.5-29.4 19.2-9 3.5-22.6 7.7-47.5 8.8-27 1.2-35.1 1.5-103.4 1.5s-76.5-.3-103.4-1.5c-25-1.1-38.5-5.3-47.5-8.8-11.9-4.6-20.5-10.2-29.4-19.1-9-9-14.5-17.5-19.2-29.4-3.5-9-7.7-22.6-8.8-47.5-1.2-27-1.5-35.1-1.5-103.4s.3-76.5 1.5-103.4c1.1-25 5.3-38.5 8.8-47.5 4.6-11.9 10.2-20.5 19.1-29.4 9-9 17.5-14.5 29.4-19.2 9-3.5 22.6-7.7 47.5-8.8 26.9-1.2 35-1.5 103.4-1.5zM256 0c-69.5 0-78.2.3-105.5 1.5-27.2 1.2-45.9 5.6-62.1 11.9C71.5 20 57.2 28.7 43 43 28.7 57.2 20 71.5 13.4 88.3c-6.3 16.3-10.7 34.9-11.9 62.1C.3 177.8 0 186.5 0 256s.3 78.2 1.5 105.5c1.2 27.2 5.6 45.9 11.9 62.1C20 440.5 28.7 454.8 43 469c14.2 14.2 28.5 23 45.3 29.5 16.3 6.3 34.9 10.7 62.1 11.9 27.3 1.2 36 1.5 105.5 1.5s78.2-.3 105.5-1.5c27.2-1.2 45.9-5.6 62.1-11.9 16.8-6.5 31.1-15.3 45.3-29.5s23-28.5 29.5-45.3c6.3-16.3 10.7-34.9 11.9-62.1 1.2-27.3 1.5-36 1.5-105.5s-.3-78.2-1.5-105.5c-1.2-27.2-5.6-45.9-11.9-62.1-6.3-17-15-31.3-29.3-45.5-14.2-14.2-28.5-23-45.3-29.5-16.3-6.3-34.9-10.7-62.1-11.9C334.2.3 325.5 0 256 0z"></path>
    <path d="M256 124.5c-72.6 0-131.5 58.9-131.5 131.5S183.4 387.5 256 387.5 387.5 328.6 387.5 256 328.6 124.5 256 124.5zm0 216.8c-47.1 0-85.3-38.2-85.3-85.3s38.2-85.3 85.3-85.3c47.1 0 85.3 38.2 85.3 85.3s-38.2 85.3-85.3 85.3zm167.4-222c0 16.955-13.745 30.7-30.7 30.7S362 136.255 362 119.3s13.745-30.7 30.7-30.7 30.7 13.745 30.7 30.7z"></path>
  </symbol>

  </svg>